<svg width="105" height="105" viewBox="0 0 105 105" fill="none" xmlns="http://www.w3.org/2000/svg">
<path d="M99.175 64.0019V75.3565C99.175 93.4048 88.4154 104.164 70.367 104.164H28.8162C16.1725 104.164 7.04912 98.859 2.78496 89.4381L3.33038 89.0415L27.7254 72.679C29.6936 71.3768 32.0282 70.7413 34.3849 70.8663C36.7416 70.9913 38.9959 71.8701 40.8154 73.3731L42.5012 74.7615C44.4747 76.3733 46.9444 77.2537 49.4925 77.2537C52.0405 77.2537 54.5103 76.3733 56.4837 74.7615L77.1104 57.0602C79.0838 55.4484 81.5536 54.568 84.1016 54.568C86.6497 54.568 89.1194 55.4484 91.0929 57.0602L99.175 64.0019Z" fill="url(#paint0_linear_8_110)"/>
<path opacity="0.4" d="M99.175 33.642V33.8056V64.0019L91.0929 57.0602C89.1194 55.4484 86.6496 54.568 84.1016 54.568C81.5536 54.568 79.0838 55.4484 77.1104 57.0602L56.4837 74.7615C54.5102 76.3733 52.0405 77.2537 49.4925 77.2537C46.9444 77.2537 44.4747 76.3733 42.5012 74.7615L40.8154 73.3731C38.9959 71.8701 36.7416 70.9913 34.3849 70.8663C32.0282 70.7413 29.6936 71.3768 27.7254 72.679L3.33037 89.0415L2.78495 89.4381C0.847878 85.0015 -0.0996376 80.1963 0.00828553 75.3565V33.8056C0.00828553 15.7573 10.7679 4.9977 28.8162 4.9977H70.367H70.5307C69.7742 6.59236 69.3958 8.34004 69.425 10.1048V24.6823C69.2997 26.0354 69.4741 27.3994 69.9357 28.6775C70.3972 29.9556 71.1347 31.1163 72.0955 32.0771C73.0564 33.038 74.2171 33.7754 75.4952 34.237C76.7732 34.6985 78.1373 34.8729 79.4904 34.7477H94.0679C95.8326 34.7769 97.5803 34.3985 99.175 33.642Z" fill="url(#paint1_linear_8_110)"/>
<path d="M46.4927 34.7477C46.4927 37.0768 45.802 39.3536 44.508 41.2901C43.2141 43.2267 41.3749 44.736 39.2231 45.6274C37.0713 46.5187 34.7036 46.7519 32.4192 46.2975C30.1349 45.8431 28.0366 44.7215 26.3897 43.0746C24.7428 41.4277 23.6212 39.3294 23.1668 37.0451C22.7125 34.7608 22.9457 32.393 23.837 30.2412C24.7283 28.0894 26.2376 26.2503 28.1742 24.9563C30.1108 23.6623 32.3875 22.9717 34.7166 22.9717C37.839 22.9743 40.8328 24.2158 43.0406 26.4237C45.2485 28.6316 46.49 31.6253 46.4927 34.7477Z" fill="url(#paint2_linear_8_110)"/>
<path d="M94.0679 0.0393544H79.4904C78.1373 -0.0858549 76.7732 0.0885171 75.4952 0.550077C74.2171 1.01164 73.0564 1.74905 72.0955 2.70992C71.1347 3.67078 70.3972 4.83149 69.9357 6.10956C69.4741 7.38764 69.2997 8.75169 69.425 10.1048V24.6823C69.2997 26.0354 69.4741 27.3994 69.9357 28.6775C70.3972 29.9556 71.1347 31.1163 72.0955 32.0771C73.0564 33.038 74.2171 33.7754 75.4952 34.237C76.7732 34.6985 78.1373 34.8729 79.4904 34.7477H94.0679C95.4209 34.8729 96.785 34.6985 98.0631 34.237C99.3412 33.7754 100.502 33.038 101.463 32.0771C102.424 31.1163 103.161 29.9556 103.623 28.6775C104.084 27.3994 104.258 26.0354 104.133 24.6823V10.1048C104.258 8.75169 104.084 7.38764 103.623 6.10956C103.161 4.83149 102.424 3.67078 101.463 2.70992C100.502 1.74905 99.3412 1.01164 98.0631 0.550077C96.785 0.0885171 95.4209 -0.0858549 94.0679 0.0393544ZM98.7287 19.5256C98.1789 20.0556 97.4581 20.372 96.6958 20.4181H89.7045L89.7541 27.3102C89.7259 28.1156 89.3885 28.8792 88.812 29.4423C88.2699 29.9771 87.5406 30.2795 86.7791 30.2852C86.3884 30.2852 86.0016 30.2082 85.6406 30.0587C85.2797 29.9092 84.9517 29.6901 84.6755 29.4138C84.3992 29.1376 84.1801 28.8096 84.0306 28.4487C83.8811 28.0877 83.8041 27.7009 83.8041 27.3102V20.3685L76.8625 20.4181C76.0689 20.4051 75.3123 20.0807 74.7557 19.5149C74.1992 18.9491 73.8873 18.1872 73.8875 17.3935C73.8875 16.6045 74.2009 15.8478 74.7588 15.2899C75.3167 14.732 76.0734 14.4185 76.8625 14.4185L83.8041 14.4681V7.52644C83.8041 6.73742 84.1176 5.98072 84.6755 5.4228C85.2334 4.86487 85.9901 4.55144 86.7791 4.55144C87.5681 4.55144 88.3248 4.86487 88.8828 5.4228C89.4407 5.98072 89.7541 6.73742 89.7541 7.52644L89.7045 14.4185H96.6958C97.0865 14.4185 97.4733 14.4955 97.8343 14.645C98.1952 14.7945 98.5232 15.0136 98.7994 15.2899C99.0757 15.5661 99.2948 15.8941 99.4443 16.255C99.5938 16.616 99.6708 17.0028 99.6708 17.3935C99.6198 18.1935 99.2859 18.9493 98.7287 19.5256Z" fill="url(#paint3_linear_8_110)"/>
<defs>
<linearGradient id="paint0_linear_8_110" x1="2.78496" y1="79.3677" x2="99.175" y2="79.3677" gradientUnits="userSpaceOnUse">
<stop stop-color="#16E22E"/>
<stop offset="1" stop-color="#019D11"/>
</linearGradient>
<linearGradient id="paint1_linear_8_110" x1="0.00828553" y1="47.2179" x2="-2.47088" y2="47.2179" gradientUnits="userSpaceOnUse">
<stop stop-color="#57B462"/>
<stop offset="1" stop-color="#019D11"/>
</linearGradient>
<linearGradient id="paint2_linear_8_110" x1="22.9406" y1="34.7477" x2="46.4927" y2="34.7477" gradientUnits="userSpaceOnUse">
<stop stop-color="#16E22E"/>
<stop offset="1" stop-color="#019D11"/>
</linearGradient>
<linearGradient id="paint3_linear_8_110" x1="69.425" y1="17.3935" x2="104.133" y2="17.3935" gradientUnits="userSpaceOnUse">
<stop stop-color="#16E22E"/>
<stop offset="1" stop-color="#019D11"/>
</linearGradient>
</defs>
</svg>
